<svg width="84" height="105" viewBox="0 0 84 105" fill="none" xmlns="http://www.w3.org/2000/svg">
<path d="M83 42C83 67.5891 54.6126 94.2391 45.0801 102.47C44.1921 103.138 43.1111 103.499 42 103.499C40.8889 103.499 39.8079 103.138 38.9199 102.47C29.3874 94.2391 1 67.5891 1 42C1 31.1261 5.31963 20.6976 13.0086 13.0086C20.6976 5.31963 31.1261 1 42 1C52.8739 1 63.3024 5.31963 70.9914 13.0086C78.6804 20.6976 83 31.1261 83 42Z" fill="#FFCC00" stroke="white" stroke-width="2" stroke-linecap="round" stroke-linejoin="round"/>
<path d="M42 57.375C50.4914 57.375 57.375 50.4914 57.375 42C57.375 33.5086 50.4914 26.625 42 26.625C33.5086 26.625 26.625 33.5086 26.625 42C26.625 50.4914 33.5086 57.375 42 57.375Z" fill="white" stroke="white" stroke-width="2" stroke-linecap="round" stroke-linejoin="round"/>
</svg>
